<mxfile host="app.diagrams.net" agent="Mozilla/5.0 (Windows NT 10.0; Win64; x64) AppleWebKit/537.36 (KHTML, like Gecko) Chrome/128.0.0.0 Safari/537.36" version="24.7.16">
  <diagram name="Page-1" id="RLg88WeFO-AKjfKkiFZF">
    <mxGraphModel dx="1194" dy="592" grid="1" gridSize="10" guides="1" tooltips="1" connect="1" arrows="1" fold="1" page="1" pageScale="1" pageWidth="850" pageHeight="1100" math="0" shadow="0">
      <root>
        <mxCell id="0" />
        <mxCell id="1" parent="0" />
        <mxCell id="VaXwra4w_6Zi4qSz580A-2" value="" style="whiteSpace=wrap;html=1;aspect=fixed;" vertex="1" parent="1">
          <mxGeometry x="240" y="70" width="550" height="550" as="geometry" />
        </mxCell>
        <mxCell id="VaXwra4w_6Zi4qSz580A-16" style="rounded=0;orthogonalLoop=1;jettySize=auto;html=1;exitX=0.5;exitY=0;exitDx=0;exitDy=0;exitPerimeter=0;entryX=0;entryY=0.5;entryDx=0;entryDy=0;" edge="1" parent="1" source="VaXwra4w_6Zi4qSz580A-1" target="VaXwra4w_6Zi4qSz580A-4">
          <mxGeometry relative="1" as="geometry" />
        </mxCell>
        <mxCell id="VaXwra4w_6Zi4qSz580A-17" style="rounded=0;orthogonalLoop=1;jettySize=auto;html=1;exitX=0.75;exitY=0.1;exitDx=0;exitDy=0;exitPerimeter=0;entryX=0;entryY=0.5;entryDx=0;entryDy=0;" edge="1" parent="1" source="VaXwra4w_6Zi4qSz580A-1">
          <mxGeometry relative="1" as="geometry">
            <mxPoint x="280" y="220" as="targetPoint" />
          </mxGeometry>
        </mxCell>
        <mxCell id="VaXwra4w_6Zi4qSz580A-19" style="rounded=0;orthogonalLoop=1;jettySize=auto;html=1;exitX=1;exitY=1;exitDx=0;exitDy=0;exitPerimeter=0;entryX=0;entryY=0.5;entryDx=0;entryDy=0;" edge="1" parent="1" source="VaXwra4w_6Zi4qSz580A-1" target="VaXwra4w_6Zi4qSz580A-12">
          <mxGeometry relative="1" as="geometry" />
        </mxCell>
        <mxCell id="VaXwra4w_6Zi4qSz580A-20" style="rounded=0;orthogonalLoop=1;jettySize=auto;html=1;exitX=0.5;exitY=0.5;exitDx=0;exitDy=0;exitPerimeter=0;entryX=0;entryY=0.5;entryDx=0;entryDy=0;" edge="1" parent="1" source="VaXwra4w_6Zi4qSz580A-1" target="VaXwra4w_6Zi4qSz580A-11">
          <mxGeometry relative="1" as="geometry" />
        </mxCell>
        <mxCell id="VaXwra4w_6Zi4qSz580A-1" value="&lt;font style=&quot;font-size: 14px;&quot;&gt;Nurse&lt;/font&gt;" style="shape=umlActor;verticalLabelPosition=bottom;verticalAlign=top;html=1;outlineConnect=0;" vertex="1" parent="1">
          <mxGeometry x="90" y="315" width="60" height="80" as="geometry" />
        </mxCell>
        <mxCell id="VaXwra4w_6Zi4qSz580A-3" value="&lt;b&gt;&lt;font style=&quot;font-size: 18px;&quot;&gt;Patient Triage&lt;/font&gt;&lt;/b&gt;" style="text;html=1;align=center;verticalAlign=middle;whiteSpace=wrap;rounded=0;" vertex="1" parent="1">
          <mxGeometry x="240" y="70" width="140" height="30" as="geometry" />
        </mxCell>
        <mxCell id="VaXwra4w_6Zi4qSz580A-4" value="" style="ellipse;whiteSpace=wrap;html=1;" vertex="1" parent="1">
          <mxGeometry x="280" y="125" width="160" height="40" as="geometry" />
        </mxCell>
        <mxCell id="VaXwra4w_6Zi4qSz580A-5" value="&lt;font style=&quot;font-size: 14px;&quot;&gt;Assesment&amp;nbsp;&lt;/font&gt;" style="text;html=1;align=center;verticalAlign=middle;whiteSpace=wrap;rounded=0;" vertex="1" parent="1">
          <mxGeometry x="300" y="135" width="90" height="30" as="geometry" />
        </mxCell>
        <mxCell id="VaXwra4w_6Zi4qSz580A-6" value="" style="ellipse;whiteSpace=wrap;html=1;" vertex="1" parent="1">
          <mxGeometry x="280" y="200" width="160" height="40" as="geometry" />
        </mxCell>
        <mxCell id="VaXwra4w_6Zi4qSz580A-9" value="" style="ellipse;whiteSpace=wrap;html=1;" vertex="1" parent="1">
          <mxGeometry x="280" y="280" width="160" height="60" as="geometry" />
        </mxCell>
        <mxCell id="VaXwra4w_6Zi4qSz580A-10" value="&lt;font style=&quot;font-size: 14px;&quot;&gt;Plan&lt;/font&gt;" style="ellipse;whiteSpace=wrap;html=1;" vertex="1" parent="1">
          <mxGeometry x="280" y="390" width="160" height="40" as="geometry" />
        </mxCell>
        <mxCell id="VaXwra4w_6Zi4qSz580A-11" value="&lt;font style=&quot;font-size: 14px;&quot;&gt;Intervention&lt;/font&gt;" style="ellipse;whiteSpace=wrap;html=1;" vertex="1" parent="1">
          <mxGeometry x="295" y="470" width="160" height="40" as="geometry" />
        </mxCell>
        <mxCell id="VaXwra4w_6Zi4qSz580A-12" value="&lt;font style=&quot;font-size: 14px;&quot;&gt;Evaluation&lt;/font&gt;" style="ellipse;whiteSpace=wrap;html=1;" vertex="1" parent="1">
          <mxGeometry x="295" y="560" width="160" height="40" as="geometry" />
        </mxCell>
        <mxCell id="VaXwra4w_6Zi4qSz580A-13" value="&lt;font style=&quot;font-size: 14px;&quot;&gt;Diagnosis&lt;/font&gt;" style="text;html=1;align=center;verticalAlign=middle;whiteSpace=wrap;rounded=0;" vertex="1" parent="1">
          <mxGeometry x="310" y="205" width="60" height="30" as="geometry" />
        </mxCell>
        <mxCell id="VaXwra4w_6Zi4qSz580A-14" value="&lt;span style=&quot;color: rgb(0, 0, 0); font-family: Helvetica; font-size: 14px; font-style: normal; font-variant-ligatures: normal; font-variant-caps: normal; font-weight: 400; letter-spacing: normal; orphans: 2; text-indent: 0px; text-transform: none; widows: 2; word-spacing: 0px; -webkit-text-stroke-width: 0px; white-space: normal; background-color: rgb(251, 251, 251); text-decoration-thickness: initial; text-decoration-style: initial; text-decoration-color: initial; float: none; display: inline !important;&quot;&gt;Identification of desired outcome&lt;/span&gt;" style="text;whiteSpace=wrap;html=1;align=center;" vertex="1" parent="1">
          <mxGeometry x="295" y="290" width="130" height="40" as="geometry" />
        </mxCell>
        <mxCell id="VaXwra4w_6Zi4qSz580A-18" style="rounded=0;orthogonalLoop=1;jettySize=auto;html=1;exitX=1;exitY=0.3333333333333333;exitDx=0;exitDy=0;exitPerimeter=0;entryX=0;entryY=0.5;entryDx=0;entryDy=0;" edge="1" parent="1" source="VaXwra4w_6Zi4qSz580A-1" target="VaXwra4w_6Zi4qSz580A-9">
          <mxGeometry relative="1" as="geometry" />
        </mxCell>
        <mxCell id="VaXwra4w_6Zi4qSz580A-21" style="rounded=0;orthogonalLoop=1;jettySize=auto;html=1;exitX=0.5;exitY=0.5;exitDx=0;exitDy=0;exitPerimeter=0;entryX=0;entryY=0.5;entryDx=0;entryDy=0;" edge="1" parent="1" source="VaXwra4w_6Zi4qSz580A-1" target="VaXwra4w_6Zi4qSz580A-10">
          <mxGeometry relative="1" as="geometry" />
        </mxCell>
      </root>
    </mxGraphModel>
  </diagram>
</mxfile>
